<?xml version="1.0" encoding="utf-8" ?>
<svg baseProfile="tiny" height="100%" version="1.2" width="100%" xmlns="http://www.w3.org/2000/svg" xmlns:ev="http://www.w3.org/2001/xml-events" xmlns:xlink="http://www.w3.org/1999/xlink"><defs /><polyline points="-50.0,0.0067 -48.9899,0.0074 -47.9798,0.0082 -46.9697,0.009 -45.9596,0.01 -44.9495,0.011 -43.9394,0.0122 -42.9293,0.0135 -41.9192,0.0149 -40.9091,0.0164 -39.899,0.0182 -38.8889,0.0201 -37.8788,0.0221 -36.8687,0.0244 -35.8586,0.027 -34.8485,0.0297 -33.8384,0.0328 -32.8283,0.0362 -31.8182,0.0399 -30.8081,0.0439 -29.798,0.0483 -28.7879,0.0532 -27.7778,0.0585 -26.7677,0.0644 -25.7576,0.0707 -24.7475,0.0776 -23.7374,0.0852 -22.7273,0.0934 -21.7172,0.1023 -20.7071,0.112 -19.697,0.1224 -18.6869,0.1337 -17.6768,0.1458 -16.6667,0.1589 -15.6566,0.1728 -14.6465,0.1878 -13.6364,0.2036 -12.6263,0.2205 -11.6162,0.2384 -10.6061,0.2572 -9.596,0.277 -8.5859,0.2976 -7.5758,0.3192 -6.5657,0.3415 -5.5556,0.3646 -4.5455,0.3883 -3.5354,0.4125 -2.5253,0.4372 -1.5152,0.4622 -0.5051,0.4874 0.5051,0.5126 1.5152,0.5378 2.5253,0.5628 3.5354,0.5875 4.5455,0.6117 5.5556,0.6354 6.5657,0.6585 7.5758,0.6808 8.5859,0.7024 9.596,0.723 10.6061,0.7428 11.6162,0.7616 12.6263,0.7795 13.6364,0.7964 14.6465,0.8122 15.6566,0.8272 16.6667,0.8411 17.6768,0.8542 18.6869,0.8663 19.697,0.8776 20.7071,0.888 21.7172,0.8977 22.7273,0.9066 23.7374,0.9148 24.7475,0.9224 25.7576,0.9293 26.7677,0.9356 27.7778,0.9415 28.7879,0.9468 29.798,0.9517 30.8081,0.9561 31.8182,0.9601 32.8283,0.9638 33.8384,0.9672 34.8485,0.9703 35.8586,0.973 36.8687,0.9756 37.8788,0.9779 38.8889,0.9799 39.899,0.9818 40.9091,0.9836 41.9192,0.9851 42.9293,0.9865 43.9394,0.9878 44.9495,0.989 45.9596,0.99 46.9697,0.991 47.9798,0.9918 48.9899,0.9926 50.0,0.9933" stroke="rgb(0%,0%,0%)" /><rect fill="rgb(249, 249, 249)" height="15" width="15" x="0" y="100" /><rect fill="rgb(69, 69, 69)" height="15" width="15" x="20" y="100" /><rect fill="rgb(159, 159, 159)" height="15" width="15" x="40" y="100" /><rect fill="rgb(172, 172, 172)" height="15" width="15" x="0" y="120" /><rect fill="rgb(30, 30, 30)" height="15" width="15" x="20" y="120" /><rect fill="rgb(245, 245, 245)" height="15" width="15" x="40" y="120" /><rect fill="rgb(105, 105, 105)" height="15" width="15" x="0" y="140" /><rect fill="rgb(140, 140, 140)" height="15" width="15" x="20" y="140" /><rect fill="rgb(201, 201, 201)" height="15" width="15" x="40" y="140" /></svg>